<mxfile host="Electron" agent="Mozilla/5.0 (Windows NT 10.0; Win64; x64) AppleWebKit/537.36 (KHTML, like Gecko) draw.io/27.0.9 Chrome/134.0.6998.205 Electron/35.4.0 Safari/537.36" version="27.0.9">
  <diagram id="ggyDaBEigRkIFyP_Q6qX" name="Data flow ">
    <mxGraphModel dx="1389" dy="835" grid="1" gridSize="10" guides="1" tooltips="1" connect="1" arrows="1" fold="1" page="1" pageScale="1" pageWidth="1920" pageHeight="1200" math="0" shadow="0">
      <root>
        <mxCell id="0" />
        <mxCell id="KsE8Vp3s20GESLzes6BM-16" parent="0" />
        <mxCell id="k2JVAGaMSUis1EkSIWrg-0" value="" style="rounded=0;whiteSpace=wrap;html=1;" vertex="1" parent="KsE8Vp3s20GESLzes6BM-16">
          <mxGeometry x="455" y="358" width="1010" height="485" as="geometry" />
        </mxCell>
        <mxCell id="hqzwIRu8wqQsER7SYCP6-0" value="" style="rounded=0;html=1;fillColor=none;fontColor=default;whiteSpace=wrap;strokeColor=default;dashed=1;" parent="KsE8Vp3s20GESLzes6BM-16" vertex="1">
          <mxGeometry x="475" y="382" width="180" height="431" as="geometry" />
        </mxCell>
        <mxCell id="hqzwIRu8wqQsER7SYCP6-1" value="&lt;font style=&quot;font-size: 24px;&quot;&gt;Sources&lt;/font&gt;" style="rounded=0;whiteSpace=wrap;html=1;strokeColor=none;" parent="KsE8Vp3s20GESLzes6BM-16" vertex="1">
          <mxGeometry x="505" y="363" width="120" height="30" as="geometry" />
        </mxCell>
        <mxCell id="00hFxqHZDpePLxhZEk7Y-0" value="&lt;b&gt;&lt;font style=&quot;font-size: 14px;&quot;&gt;Bronze Layer&lt;/font&gt;&lt;/b&gt;" style="rounded=1;whiteSpace=wrap;html=1;fillColor=#ffe6cc;strokeColor=#d79b00;" parent="KsE8Vp3s20GESLzes6BM-16" vertex="1">
          <mxGeometry x="740" y="382" width="180" height="30" as="geometry" />
        </mxCell>
        <mxCell id="00hFxqHZDpePLxhZEk7Y-5" value="" style="group" parent="KsE8Vp3s20GESLzes6BM-16" vertex="1" connectable="0">
          <mxGeometry x="534.19" y="692" width="61.610000000000014" height="77.38" as="geometry" />
        </mxCell>
        <mxCell id="hqzwIRu8wqQsER7SYCP6-3" value="" style="image;aspect=fixed;html=1;points=[];align=center;fontSize=12;image=img/lib/azure2/general/Folder_Blank.svg;shadow=0;movable=1;resizable=1;rotatable=1;deletable=1;editable=1;locked=0;connectable=1;" parent="00hFxqHZDpePLxhZEk7Y-5" vertex="1">
          <mxGeometry width="61.61" height="50" as="geometry" />
        </mxCell>
        <mxCell id="hqzwIRu8wqQsER7SYCP6-14" value="&lt;b&gt;ERP&lt;/b&gt;" style="text;html=1;align=center;verticalAlign=middle;whiteSpace=wrap;rounded=0;" parent="00hFxqHZDpePLxhZEk7Y-5" vertex="1">
          <mxGeometry x="1.6100000000000136" y="47.379999999999995" width="60" height="30" as="geometry" />
        </mxCell>
        <mxCell id="00hFxqHZDpePLxhZEk7Y-6" value="" style="group" parent="KsE8Vp3s20GESLzes6BM-16" vertex="1" connectable="0">
          <mxGeometry x="534.1800000000001" y="518" width="61.620000000000005" height="80" as="geometry" />
        </mxCell>
        <mxCell id="hqzwIRu8wqQsER7SYCP6-7" value="" style="image;aspect=fixed;html=1;points=[];align=center;fontSize=12;image=img/lib/azure2/general/Folder_Blank.svg;shadow=0;" parent="00hFxqHZDpePLxhZEk7Y-6" vertex="1">
          <mxGeometry width="61.62" height="50" as="geometry" />
        </mxCell>
        <mxCell id="hqzwIRu8wqQsER7SYCP6-13" value="&lt;b&gt;CRM&lt;/b&gt;" style="text;html=1;align=center;verticalAlign=middle;whiteSpace=wrap;rounded=0;" parent="00hFxqHZDpePLxhZEk7Y-6" vertex="1">
          <mxGeometry x="1.6200000000000045" y="50" width="60" height="30" as="geometry" />
        </mxCell>
        <mxCell id="6bYLMgrcsjB2hjd1M9z5-0" value="" style="rounded=1;whiteSpace=wrap;html=1;fillColor=light-dark(#f8b06d, #5c320b);strokeColor=#d79b00;shadow=0;arcSize=6;fillStyle=hatch;" parent="KsE8Vp3s20GESLzes6BM-16" vertex="1">
          <mxGeometry x="740" y="418" width="180" height="395" as="geometry" />
        </mxCell>
        <mxCell id="HpfRpPVU0rThaKlWhV43-8" style="edgeStyle=orthogonalEdgeStyle;rounded=0;orthogonalLoop=1;jettySize=auto;html=1;entryX=0;entryY=0.5;entryDx=0;entryDy=0;" parent="KsE8Vp3s20GESLzes6BM-16" source="6bYLMgrcsjB2hjd1M9z5-1" target="HpfRpPVU0rThaKlWhV43-2" edge="1">
          <mxGeometry relative="1" as="geometry" />
        </mxCell>
        <mxCell id="6bYLMgrcsjB2hjd1M9z5-1" value="&lt;font style=&quot;font-size: 13px;&quot;&gt;crm_cust_info&lt;b style=&quot;&quot;&gt;&amp;nbsp;&lt;/b&gt;&lt;/font&gt;" style="rounded=1;whiteSpace=wrap;html=1;fillColor=#ffe6cc;strokeColor=#d79b00;" parent="KsE8Vp3s20GESLzes6BM-16" vertex="1">
          <mxGeometry x="755" y="528" width="150" height="30" as="geometry" />
        </mxCell>
        <mxCell id="HpfRpPVU0rThaKlWhV43-9" style="edgeStyle=orthogonalEdgeStyle;rounded=0;orthogonalLoop=1;jettySize=auto;html=1;exitX=1;exitY=0.5;exitDx=0;exitDy=0;entryX=0;entryY=0.5;entryDx=0;entryDy=0;" parent="KsE8Vp3s20GESLzes6BM-16" source="6bYLMgrcsjB2hjd1M9z5-2" target="HpfRpPVU0rThaKlWhV43-3" edge="1">
          <mxGeometry relative="1" as="geometry" />
        </mxCell>
        <mxCell id="6bYLMgrcsjB2hjd1M9z5-2" value="&lt;font style=&quot;font-size: 13px;&quot;&gt;&lt;span&gt;crm_prd_info&lt;/span&gt;&lt;b&gt;&amp;nbsp;&lt;/b&gt;&lt;/font&gt;" style="rounded=1;whiteSpace=wrap;html=1;fillColor=#ffe6cc;strokeColor=#d79b00;fontSize=12;" parent="KsE8Vp3s20GESLzes6BM-16" vertex="1">
          <mxGeometry x="755" y="578" width="150" height="30" as="geometry" />
        </mxCell>
        <mxCell id="HpfRpPVU0rThaKlWhV43-10" style="edgeStyle=orthogonalEdgeStyle;rounded=0;orthogonalLoop=1;jettySize=auto;html=1;exitX=1;exitY=0.5;exitDx=0;exitDy=0;entryX=0;entryY=0.5;entryDx=0;entryDy=0;" parent="KsE8Vp3s20GESLzes6BM-16" source="6bYLMgrcsjB2hjd1M9z5-3" target="HpfRpPVU0rThaKlWhV43-4" edge="1">
          <mxGeometry relative="1" as="geometry" />
        </mxCell>
        <mxCell id="6bYLMgrcsjB2hjd1M9z5-3" value="&lt;font style=&quot;font-size: 13px;&quot;&gt;crm_sales_details&lt;/font&gt;" style="rounded=1;whiteSpace=wrap;html=1;fillColor=#ffe6cc;strokeColor=#d79b00;" parent="KsE8Vp3s20GESLzes6BM-16" vertex="1">
          <mxGeometry x="755" y="478" width="150" height="30" as="geometry" />
        </mxCell>
        <mxCell id="HpfRpPVU0rThaKlWhV43-11" style="edgeStyle=orthogonalEdgeStyle;rounded=0;orthogonalLoop=1;jettySize=auto;html=1;exitX=1;exitY=0.5;exitDx=0;exitDy=0;entryX=0;entryY=0.5;entryDx=0;entryDy=0;" parent="KsE8Vp3s20GESLzes6BM-16" source="6bYLMgrcsjB2hjd1M9z5-4" target="HpfRpPVU0rThaKlWhV43-5" edge="1">
          <mxGeometry relative="1" as="geometry" />
        </mxCell>
        <mxCell id="6bYLMgrcsjB2hjd1M9z5-4" value="&lt;font style=&quot;font-size: 13px;&quot;&gt;erp_cust_az12&lt;/font&gt;" style="rounded=1;whiteSpace=wrap;html=1;fillColor=#ffe6cc;strokeColor=#d79b00;" parent="KsE8Vp3s20GESLzes6BM-16" vertex="1">
          <mxGeometry x="755" y="651.69" width="150" height="30" as="geometry" />
        </mxCell>
        <mxCell id="HpfRpPVU0rThaKlWhV43-12" style="edgeStyle=orthogonalEdgeStyle;rounded=0;orthogonalLoop=1;jettySize=auto;html=1;exitX=1;exitY=0.5;exitDx=0;exitDy=0;entryX=0;entryY=0.5;entryDx=0;entryDy=0;" parent="KsE8Vp3s20GESLzes6BM-16" source="6bYLMgrcsjB2hjd1M9z5-5" target="HpfRpPVU0rThaKlWhV43-6" edge="1">
          <mxGeometry relative="1" as="geometry" />
        </mxCell>
        <mxCell id="6bYLMgrcsjB2hjd1M9z5-5" value="&lt;font style=&quot;font-size: 13px;&quot;&gt;erp_loc_a101&lt;/font&gt;" style="rounded=1;whiteSpace=wrap;html=1;fillColor=#ffe6cc;strokeColor=#d79b00;" parent="KsE8Vp3s20GESLzes6BM-16" vertex="1">
          <mxGeometry x="755" y="701.69" width="150" height="30" as="geometry" />
        </mxCell>
        <mxCell id="HpfRpPVU0rThaKlWhV43-13" style="edgeStyle=orthogonalEdgeStyle;rounded=0;orthogonalLoop=1;jettySize=auto;html=1;exitX=1;exitY=0.5;exitDx=0;exitDy=0;" parent="KsE8Vp3s20GESLzes6BM-16" source="6bYLMgrcsjB2hjd1M9z5-6" target="HpfRpPVU0rThaKlWhV43-7" edge="1">
          <mxGeometry relative="1" as="geometry" />
        </mxCell>
        <mxCell id="6bYLMgrcsjB2hjd1M9z5-6" value="&lt;font style=&quot;font-size: 13px;&quot;&gt;&lt;span&gt;erp_px_cat_g1v2&lt;/span&gt;&lt;/font&gt;" style="rounded=1;whiteSpace=wrap;html=1;fillColor=#ffe6cc;strokeColor=#d79b00;fontSize=12;" parent="KsE8Vp3s20GESLzes6BM-16" vertex="1">
          <mxGeometry x="755" y="751.69" width="150" height="30" as="geometry" />
        </mxCell>
        <mxCell id="QcPrSYHMvMbwt-YgAI6F-0" style="edgeStyle=orthogonalEdgeStyle;rounded=0;orthogonalLoop=1;jettySize=auto;html=1;entryX=0;entryY=0.5;entryDx=0;entryDy=0;" parent="KsE8Vp3s20GESLzes6BM-16" source="hqzwIRu8wqQsER7SYCP6-3" target="6bYLMgrcsjB2hjd1M9z5-4" edge="1">
          <mxGeometry relative="1" as="geometry" />
        </mxCell>
        <mxCell id="QcPrSYHMvMbwt-YgAI6F-1" style="edgeStyle=orthogonalEdgeStyle;rounded=0;orthogonalLoop=1;jettySize=auto;html=1;entryX=0;entryY=0.5;entryDx=0;entryDy=0;" parent="KsE8Vp3s20GESLzes6BM-16" source="hqzwIRu8wqQsER7SYCP6-3" target="6bYLMgrcsjB2hjd1M9z5-6" edge="1">
          <mxGeometry relative="1" as="geometry" />
        </mxCell>
        <mxCell id="QcPrSYHMvMbwt-YgAI6F-2" style="edgeStyle=orthogonalEdgeStyle;rounded=0;orthogonalLoop=1;jettySize=auto;html=1;entryX=0;entryY=0.5;entryDx=0;entryDy=0;" parent="KsE8Vp3s20GESLzes6BM-16" source="hqzwIRu8wqQsER7SYCP6-3" target="6bYLMgrcsjB2hjd1M9z5-5" edge="1">
          <mxGeometry relative="1" as="geometry" />
        </mxCell>
        <mxCell id="QcPrSYHMvMbwt-YgAI6F-3" style="edgeStyle=orthogonalEdgeStyle;rounded=0;orthogonalLoop=1;jettySize=auto;html=1;entryX=0;entryY=0.5;entryDx=0;entryDy=0;" parent="KsE8Vp3s20GESLzes6BM-16" source="hqzwIRu8wqQsER7SYCP6-7" target="6bYLMgrcsjB2hjd1M9z5-2" edge="1">
          <mxGeometry relative="1" as="geometry" />
        </mxCell>
        <mxCell id="QcPrSYHMvMbwt-YgAI6F-4" style="edgeStyle=orthogonalEdgeStyle;rounded=0;orthogonalLoop=1;jettySize=auto;html=1;entryX=0;entryY=0.5;entryDx=0;entryDy=0;" parent="KsE8Vp3s20GESLzes6BM-16" source="hqzwIRu8wqQsER7SYCP6-7" target="6bYLMgrcsjB2hjd1M9z5-1" edge="1">
          <mxGeometry relative="1" as="geometry" />
        </mxCell>
        <mxCell id="QcPrSYHMvMbwt-YgAI6F-5" style="edgeStyle=orthogonalEdgeStyle;rounded=0;orthogonalLoop=1;jettySize=auto;html=1;entryX=0;entryY=0.5;entryDx=0;entryDy=0;" parent="KsE8Vp3s20GESLzes6BM-16" source="hqzwIRu8wqQsER7SYCP6-7" target="6bYLMgrcsjB2hjd1M9z5-3" edge="1">
          <mxGeometry relative="1" as="geometry" />
        </mxCell>
        <mxCell id="HpfRpPVU0rThaKlWhV43-0" value="&lt;span style=&quot;font-size: 14px;&quot;&gt;&lt;b&gt;Silver Layer&lt;/b&gt;&lt;/span&gt;" style="rounded=1;whiteSpace=wrap;html=1;fillColor=#f5f5f5;strokeColor=#666666;fontColor=#333333;" parent="KsE8Vp3s20GESLzes6BM-16" vertex="1">
          <mxGeometry x="998" y="382" width="180" height="30" as="geometry" />
        </mxCell>
        <mxCell id="HpfRpPVU0rThaKlWhV43-1" value="" style="rounded=1;whiteSpace=wrap;html=1;fillColor=#CCCCCC;strokeColor=#666666;shadow=0;arcSize=6;fontColor=#333333;fillStyle=hatch;" parent="KsE8Vp3s20GESLzes6BM-16" vertex="1">
          <mxGeometry x="998" y="418" width="180" height="395" as="geometry" />
        </mxCell>
        <mxCell id="HpfRpPVU0rThaKlWhV43-2" value="&lt;font style=&quot;font-size: 13px;&quot;&gt;crm_cust_info&lt;b style=&quot;&quot;&gt;&amp;nbsp;&lt;/b&gt;&lt;/font&gt;" style="rounded=1;whiteSpace=wrap;html=1;fillColor=#f5f5f5;strokeColor=#666666;fontColor=#333333;" parent="KsE8Vp3s20GESLzes6BM-16" vertex="1">
          <mxGeometry x="1015" y="528" width="150" height="30" as="geometry" />
        </mxCell>
        <mxCell id="HpfRpPVU0rThaKlWhV43-3" value="&lt;font style=&quot;font-size: 13px;&quot;&gt;&lt;span&gt;crm_prd_info&lt;/span&gt;&lt;b&gt;&amp;nbsp;&lt;/b&gt;&lt;/font&gt;" style="rounded=1;whiteSpace=wrap;html=1;fillColor=#f5f5f5;strokeColor=#666666;fontSize=12;fontColor=#333333;" parent="KsE8Vp3s20GESLzes6BM-16" vertex="1">
          <mxGeometry x="1015" y="578" width="150" height="30" as="geometry" />
        </mxCell>
        <mxCell id="HpfRpPVU0rThaKlWhV43-4" value="&lt;font style=&quot;font-size: 13px;&quot;&gt;crm_sales_details&lt;/font&gt;" style="rounded=1;whiteSpace=wrap;html=1;fillColor=#f5f5f5;strokeColor=#666666;fontColor=#333333;" parent="KsE8Vp3s20GESLzes6BM-16" vertex="1">
          <mxGeometry x="1015" y="478" width="150" height="30" as="geometry" />
        </mxCell>
        <mxCell id="HpfRpPVU0rThaKlWhV43-5" value="&lt;span style=&quot;color: rgb(0, 0, 0); font-size: 13px;&quot;&gt;erp_cust_az12&lt;/span&gt;" style="rounded=1;whiteSpace=wrap;html=1;fillColor=#f5f5f5;strokeColor=#666666;fontColor=#333333;" parent="KsE8Vp3s20GESLzes6BM-16" vertex="1">
          <mxGeometry x="1015" y="651.69" width="150" height="30" as="geometry" />
        </mxCell>
        <mxCell id="HpfRpPVU0rThaKlWhV43-6" value="&lt;span style=&quot;color: rgb(0, 0, 0); font-size: 13px;&quot;&gt;erp_loc_a101&lt;/span&gt;" style="rounded=1;whiteSpace=wrap;html=1;fillColor=#f5f5f5;strokeColor=#666666;fontColor=#333333;" parent="KsE8Vp3s20GESLzes6BM-16" vertex="1">
          <mxGeometry x="1015" y="701.69" width="150" height="30" as="geometry" />
        </mxCell>
        <mxCell id="HpfRpPVU0rThaKlWhV43-7" value="&lt;span style=&quot;color: rgb(0, 0, 0); font-size: 13px;&quot;&gt;erp_px_cat_g1v2&lt;/span&gt;" style="rounded=1;whiteSpace=wrap;html=1;fillColor=#f5f5f5;strokeColor=#666666;fontSize=12;fontColor=#333333;" parent="KsE8Vp3s20GESLzes6BM-16" vertex="1">
          <mxGeometry x="1015" y="751.69" width="150" height="30" as="geometry" />
        </mxCell>
        <mxCell id="FbupNl8SZfFYCRPVvc2g-0" value="&lt;span style=&quot;font-size: 14px;&quot;&gt;&lt;b&gt;Gold Layer&lt;/b&gt;&lt;/span&gt;" style="rounded=1;whiteSpace=wrap;html=1;fillColor=#fff2cc;strokeColor=#d6b656;" parent="KsE8Vp3s20GESLzes6BM-16" vertex="1">
          <mxGeometry x="1255" y="382" width="180" height="30" as="geometry" />
        </mxCell>
        <mxCell id="FbupNl8SZfFYCRPVvc2g-1" value="" style="rounded=1;whiteSpace=wrap;html=1;fillColor=#FFD966;strokeColor=#d6b656;shadow=0;arcSize=6;glass=0;fillStyle=hatch;" parent="KsE8Vp3s20GESLzes6BM-16" vertex="1">
          <mxGeometry x="1255" y="418" width="180" height="395" as="geometry" />
        </mxCell>
        <mxCell id="FbupNl8SZfFYCRPVvc2g-2" value="&lt;span style=&quot;font-size: 13px;&quot;&gt;fact_sales&lt;/span&gt;" style="rounded=1;whiteSpace=wrap;html=1;fillColor=#fff2cc;strokeColor=#d6b656;" parent="KsE8Vp3s20GESLzes6BM-16" vertex="1">
          <mxGeometry x="1270" y="478" width="150" height="30" as="geometry" />
        </mxCell>
        <mxCell id="FbupNl8SZfFYCRPVvc2g-3" value="&lt;span style=&quot;font-size: 13px;&quot;&gt;dim_customers&lt;/span&gt;" style="rounded=1;whiteSpace=wrap;html=1;fillColor=#fff2cc;strokeColor=#d6b656;fontSize=12;" parent="KsE8Vp3s20GESLzes6BM-16" vertex="1">
          <mxGeometry x="1270" y="598" width="150" height="30" as="geometry" />
        </mxCell>
        <mxCell id="FbupNl8SZfFYCRPVvc2g-4" value="&lt;font style=&quot;font-size: 13px;&quot;&gt;dim_products&lt;/font&gt;" style="rounded=1;whiteSpace=wrap;html=1;fillColor=#fff2cc;strokeColor=#d6b656;" parent="KsE8Vp3s20GESLzes6BM-16" vertex="1">
          <mxGeometry x="1270" y="701.6899999999999" width="150" height="30" as="geometry" />
        </mxCell>
        <mxCell id="FbupNl8SZfFYCRPVvc2g-17" value="" style="endArrow=classic;html=1;rounded=0;exitX=1;exitY=0.5;exitDx=0;exitDy=0;entryX=0;entryY=0.5;entryDx=0;entryDy=0;" parent="KsE8Vp3s20GESLzes6BM-16" source="HpfRpPVU0rThaKlWhV43-4" target="FbupNl8SZfFYCRPVvc2g-2" edge="1">
          <mxGeometry width="50" height="50" relative="1" as="geometry">
            <mxPoint x="1115" y="653" as="sourcePoint" />
            <mxPoint x="1165" y="603" as="targetPoint" />
          </mxGeometry>
        </mxCell>
        <mxCell id="FbupNl8SZfFYCRPVvc2g-18" value="" style="endArrow=classic;html=1;rounded=0;exitX=1;exitY=0.5;exitDx=0;exitDy=0;entryX=0;entryY=0.5;entryDx=0;entryDy=0;jumpStyle=gap;" parent="KsE8Vp3s20GESLzes6BM-16" source="HpfRpPVU0rThaKlWhV43-3" target="FbupNl8SZfFYCRPVvc2g-4" edge="1">
          <mxGeometry width="50" height="50" relative="1" as="geometry">
            <mxPoint x="1195" y="503" as="sourcePoint" />
            <mxPoint x="1285" y="553" as="targetPoint" />
          </mxGeometry>
        </mxCell>
        <mxCell id="FbupNl8SZfFYCRPVvc2g-20" value="" style="endArrow=classic;html=1;rounded=0;exitX=1;exitY=0.5;exitDx=0;exitDy=0;entryX=0;entryY=0.5;entryDx=0;entryDy=0;jumpStyle=gap;" parent="KsE8Vp3s20GESLzes6BM-16" source="HpfRpPVU0rThaKlWhV43-2" target="FbupNl8SZfFYCRPVvc2g-3" edge="1">
          <mxGeometry width="50" height="50" relative="1" as="geometry">
            <mxPoint x="1205" y="463" as="sourcePoint" />
            <mxPoint x="1295" y="513" as="targetPoint" />
          </mxGeometry>
        </mxCell>
        <mxCell id="FbupNl8SZfFYCRPVvc2g-21" value="" style="endArrow=classic;html=1;rounded=0;exitX=1;exitY=0.5;exitDx=0;exitDy=0;entryX=0;entryY=0.5;entryDx=0;entryDy=0;jumpStyle=gap;" parent="KsE8Vp3s20GESLzes6BM-16" source="HpfRpPVU0rThaKlWhV43-5" target="FbupNl8SZfFYCRPVvc2g-3" edge="1">
          <mxGeometry width="50" height="50" relative="1" as="geometry">
            <mxPoint x="1525" y="583" as="sourcePoint" />
            <mxPoint x="1615" y="633" as="targetPoint" />
          </mxGeometry>
        </mxCell>
        <mxCell id="FbupNl8SZfFYCRPVvc2g-22" value="" style="endArrow=classic;html=1;rounded=0;exitX=1;exitY=0.5;exitDx=0;exitDy=0;entryX=-0.003;entryY=0.6;entryDx=0;entryDy=0;jumpStyle=gap;entryPerimeter=0;" parent="KsE8Vp3s20GESLzes6BM-16" source="HpfRpPVU0rThaKlWhV43-6" target="FbupNl8SZfFYCRPVvc2g-3" edge="1">
          <mxGeometry width="50" height="50" relative="1" as="geometry">
            <mxPoint x="1135" y="683" as="sourcePoint" />
            <mxPoint x="1225" y="733" as="targetPoint" />
          </mxGeometry>
        </mxCell>
        <mxCell id="FbupNl8SZfFYCRPVvc2g-23" value="" style="endArrow=classic;html=1;rounded=0;exitX=1;exitY=0.5;exitDx=0;exitDy=0;entryX=0;entryY=0.5;entryDx=0;entryDy=0;jumpStyle=gap;" parent="KsE8Vp3s20GESLzes6BM-16" source="HpfRpPVU0rThaKlWhV43-7" target="FbupNl8SZfFYCRPVvc2g-4" edge="1">
          <mxGeometry width="50" height="50" relative="1" as="geometry">
            <mxPoint x="1165" y="763" as="sourcePoint" />
            <mxPoint x="1255" y="813" as="targetPoint" />
          </mxGeometry>
        </mxCell>
        <mxCell id="k2JVAGaMSUis1EkSIWrg-1" value="Data Flow" style="text;html=1;align=center;verticalAlign=middle;whiteSpace=wrap;rounded=0;fontSize=30;" vertex="1" parent="KsE8Vp3s20GESLzes6BM-16">
          <mxGeometry x="870" y="300" width="180" height="58" as="geometry" />
        </mxCell>
      </root>
    </mxGraphModel>
  </diagram>
</mxfile>
